<?xml version="1.0" standalone="no"?>
<!DOCTYPE svg PUBLIC "-//W3C//DTD SVG 20010904//EN"
 "http://www.w3.org/TR/2001/REC-SVG-20010904/DTD/svg10.dtd">
<svg version="1.0" xmlns="http://www.w3.org/2000/svg"
 width="518.000000pt" height="518.000000pt" viewBox="0 0 518.000000 518.000000"
 preserveAspectRatio="xMidYMid meet">
<metadata>
Created by potrace 1.14, written by Peter Selinger 2001-2017
</metadata>
<g transform="translate(0.000000,518.000000) scale(0.100000,-0.100000)"
fill="#000000" stroke="none">
<path d="M751 5170 c-4 -3 -6 -898 -6 -1990 l1 -1985 22 -78 c39 -139 98 -241
193 -335 88 -87 151 -123 434 -247 33 -14 102 -45 180 -80 28 -13 84 -37 125
-55 41 -18 100 -44 130 -57 30 -14 93 -42 140 -63 47 -21 108 -48 135 -60 28
-12 64 -28 80 -35 17 -7 59 -26 95 -43 36 -16 99 -44 140 -62 41 -18 95 -42
120 -53 56 -26 61 -25 140 11 36 17 116 51 179 77 63 26 121 51 130 55 9 5 72
32 141 60 69 29 170 71 225 95 55 24 188 80 295 125 107 45 209 88 225 95 17
8 64 28 105 45 222 95 382 275 441 496 l22 79 1 2003 c1 1101 -1 2003 -4 2003
-17 4 -3683 3 -3689 -1z"/>
</g>
</svg>
